<?xml version="1.0" encoding="UTF-8" standalone="no"?>
<!-- Created with Inkscape (http://www.inkscape.org/) -->

<svg
   xmlns:dc="http://purl.org/dc/elements/1.1/"
   xmlns:cc="http://creativecommons.org/ns#"
   xmlns:rdf="http://www.w3.org/1999/02/22-rdf-syntax-ns#"
   xmlns:svg="http://www.w3.org/2000/svg"
   xmlns="http://www.w3.org/2000/svg"
   xmlns:sodipodi="http://sodipodi.sourceforge.net/DTD/sodipodi-0.dtd"
   xmlns:inkscape="http://www.inkscape.org/namespaces/inkscape"
   id="svg4136"
   version="1.1"
   inkscape:version="0.91 r13725"
   xml:space="preserve"
   width="566.92499"
   height="566.92499"
   viewBox="0 0 566.92499 566.92499"
   sodipodi:docname="icon.svg"><metadata
     id="metadata4142"><rdf:RDF><cc:Work
         rdf:about=""><dc:format>image/svg+xml</dc:format><dc:type
           rdf:resource="http://purl.org/dc/dcmitype/StillImage" /><dc:title></dc:title></cc:Work></rdf:RDF></metadata><defs
     id="defs4140"><clipPath
       clipPathUnits="userSpaceOnUse"
       id="clipPath4150"><path
         d="m 0,453.54 453.54,0 L 453.54,0 0,0 0,453.54 Z"
         id="path4152"
         inkscape:connector-curvature="0" /></clipPath></defs><sodipodi:namedview
     pagecolor="#ffffff"
     bordercolor="#666666"
     borderopacity="1"
     objecttolerance="10"
     gridtolerance="10"
     guidetolerance="10"
     inkscape:pageopacity="0"
     inkscape:pageshadow="2"
     inkscape:window-width="1920"
     inkscape:window-height="1058"
     id="namedview4138"
     showgrid="false"
     inkscape:zoom="1.5151916"
     inkscape:cx="283.46249"
     inkscape:cy="283.46249"
     inkscape:window-x="-8"
     inkscape:window-y="-8"
     inkscape:window-maximized="1"
     inkscape:current-layer="g4144" /><g
     id="g4144"
     inkscape:groupmode="layer"
     inkscape:label="icon"
     transform="matrix(1.25,0,0,-1.25,0,566.925)"><g
       id="g4146"><g
         id="g4148"
         clip-path="url(#clipPath4150)"><g
           id="g4154"
           transform="translate(142.2012,112.3428)"><path
             d="m 0,0 c -22.69,-36.039 -32.201,-46.008 -63.535,-72.078 61.319,0 104.441,12.394 130.26,20.16"
             style="fill:#5e5f60;fill-opacity:1;fill-rule:nonzero;stroke:#444344;stroke-width:11;stroke-linecap:round;stroke-linejoin:miter;stroke-miterlimit:10;stroke-dasharray:none;stroke-opacity:1"
             id="path4156"
             inkscape:connector-curvature="0" /></g><g
           id="g4158"
           transform="translate(142.2012,342.1982)"><path
             d="m 0,0 c -22.69,36.039 -32.201,46.008 -63.535,72.078 61.319,0 104.441,-12.394 130.259,-20.16"
             style="fill:#5e5f60;fill-opacity:1;fill-rule:nonzero;stroke:#444344;stroke-width:11;stroke-linecap:round;stroke-linejoin:miter;stroke-miterlimit:10;stroke-dasharray:none;stroke-opacity:1"
             id="path4160"
             inkscape:connector-curvature="0" /></g><g
           id="g4162"
           transform="translate(9.9214,226.7197)"><path
             d="m 0,0 0,147.621 c 0,0 18.449,-50.469 74.327,-94.684 45.964,48.494 113.159,133.961 193.444,134.62 C 353.913,187.616 433.508,112.676 433.508,0"
             style="fill:#5e5f60;fill-opacity:1;fill-rule:nonzero;stroke:#444344;stroke-width:11;stroke-linecap:round;stroke-linejoin:miter;stroke-miterlimit:10;stroke-dasharray:none;stroke-opacity:1"
             id="path4164"
             inkscape:connector-curvature="0" /></g><g
           id="g4166"
           transform="translate(10.1147,227.8208)"><path
             d="m 0,0 0,-147.619 c 0,0 18.448,49.367 74.327,93.579 45.966,-48.493 113.156,-132.858 193.445,-133.516 84.906,0 165.735,74.881 165.735,187.556"
             style="fill:#5e5f60;fill-opacity:1;fill-rule:nonzero;stroke:#444344;stroke-width:11;stroke-linecap:round;stroke-linejoin:miter;stroke-miterlimit:10;stroke-dasharray:none;stroke-opacity:1"
             id="path4168"
             inkscape:connector-curvature="0" /></g><g
           id="g4170"
           transform="translate(371.1895,295.9741)"><path
             d="m 0,0 c 0,-13.543 -10.179,-24.523 -22.735,-24.523 -12.554,0 -22.732,10.98 -22.732,24.523 0,13.544 10.178,24.524 22.732,24.524 C -10.179,24.524 0,13.544 0,0"
             style="fill:#444344;fill-opacity:1;fill-rule:nonzero;stroke:none"
             id="path4172"
             inkscape:connector-curvature="0" /></g><g
           id="g4174"
           transform="translate(371.1895,295.9741)"><path
             d="m 0,0 c 0,-13.543 -10.179,-24.523 -22.735,-24.523 -12.554,0 -22.732,10.98 -22.732,24.523 0,13.544 10.178,24.524 22.732,24.524 C -10.179,24.524 0,13.544 0,0 Z"
             style="fill:none;stroke:#444344;stroke-width:1;stroke-linecap:butt;stroke-linejoin:miter;stroke-miterlimit:10;stroke-dasharray:none;stroke-opacity:1"
             id="path4176"
             inkscape:connector-curvature="0" /></g><g
           id="g4178"
           transform="translate(333.3613,176.9365)"><path
             d="M 0,0 C 0,-28.063 54.922,-40.658 90.121,-40.658"
             style="fill:none;stroke:#444344;stroke-width:11;stroke-linecap:round;stroke-linejoin:miter;stroke-miterlimit:10;stroke-dasharray:none;stroke-opacity:1"
             id="path4180"
             inkscape:connector-curvature="0" /></g><g
           id="g4182"
           transform="translate(289,342.1982)"><path
             d="M 0,0 C -96,-115.479 0,-229.855 0,-229.855"
             style="fill:none;stroke:#444344;stroke-width:11;stroke-linecap:round;stroke-linejoin:miter;stroke-miterlimit:10;stroke-dasharray:none;stroke-opacity:1"
             id="path4184"
             inkscape:connector-curvature="0" /></g></g></g></g></svg>