<?xml version="1.0" encoding="UTF-8" standalone="no"?>
<!-- Generator: Adobe Illustrator 15.0.0, SVG Export Plug-In . SVG Version: 6.00 Build 0)  -->

<svg
   xmlns:dc="http://purl.org/dc/elements/1.1/"
   xmlns:cc="http://creativecommons.org/ns#"
   xmlns:rdf="http://www.w3.org/1999/02/22-rdf-syntax-ns#"
   xmlns:svg="http://www.w3.org/2000/svg"
   xmlns="http://www.w3.org/2000/svg"
   xmlns:sodipodi="http://sodipodi.sourceforge.net/DTD/sodipodi-0.dtd"
   xmlns:inkscape="http://www.inkscape.org/namespaces/inkscape"
   version="1.1"
   id="Layer_1"
   x="0px"
   y="0px"
   width="425.2px"
   height="963.78px"
   viewBox="0 0 425.2 963.78"
   enable-background="new 0 0 425.2 963.78"
   xml:space="preserve"
   inkscape:version="0.91 r13725"
   sodipodi:docname="install.svg"
   inkscape:export-filename="C:\Users\tobi\Documents\Freelancer\UFZ\implementation\FishInspector_resources\instal.png"
   inkscape:export-xdpi="31.75"
   inkscape:export-ydpi="31.75"><metadata
     id="metadata209"><rdf:RDF><cc:Work
         rdf:about=""><dc:format>image/svg+xml</dc:format><dc:type
           rdf:resource="http://purl.org/dc/dcmitype/StillImage" /></cc:Work></rdf:RDF></metadata><defs
     id="defs207" /><sodipodi:namedview
     pagecolor="#ffffff"
     bordercolor="#666666"
     borderopacity="1"
     objecttolerance="10"
     gridtolerance="10"
     guidetolerance="10"
     inkscape:pageopacity="0"
     inkscape:pageshadow="2"
     inkscape:window-width="1681"
     inkscape:window-height="907"
     id="namedview205"
     showgrid="false"
     inkscape:zoom="0.24486915"
     inkscape:cx="-357.092"
     inkscape:cy="481.89001"
     inkscape:window-x="0"
     inkscape:window-y="0"
     inkscape:window-maximized="0"
     inkscape:current-layer="Layer_1" /><rect
     fill="#E6E7E8"
     width="425.2"
     height="963.781"
     id="rect3" /><g
     id="g5"><polyline
       fill="#0060A0"
       points="100.882,623.145 100.882,602.088 96.716,602.088 96.716,610.694 89.493,610.694 89.493,602.088    85.326,602.088 85.326,623.145 89.493,623.145 89.493,614.332 96.716,614.332 96.716,623.145 100.882,623.145  "
       id="polyline7" /><polyline
       fill="#0060A0"
       points="123.506,623.145 123.506,619.479 113.614,619.479 113.614,614.361 122.037,614.361    122.037,610.694 113.614,610.694 113.614,605.755 123.506,605.755 123.506,602.088 109.448,602.088 109.448,623.145    123.506,623.145  "
       id="polyline9" /><polyline
       fill="#0060A0"
       points="145.026,623.145 145.026,619.479 135.346,619.479 135.346,602.088 131.18,602.088 131.18,623.145    145.026,623.145  "
       id="polyline11" /><polyline
       fill="#0060A0"
       points="171.34,623.145 171.34,602.088 167.233,602.088 161.689,613.475 156.114,602.088 152.007,602.088    152.007,623.145 156.174,623.145 156.174,610.872 160.28,618.856 163.098,618.856 167.175,610.872 167.175,623.145 171.34,623.145     "
       id="polyline13" /><polyline
       fill="#0060A0"
       points="195.461,623.145 195.461,602.088 191.296,602.088 191.296,610.694 184.072,610.694    184.072,602.088 179.906,602.088 179.906,623.145 184.072,623.145 184.072,614.332 191.296,614.332 191.296,623.145    195.461,623.145  "
       id="polyline15" /><path
       fill="#0060A0"
       d="M219.074,612.616c0-3.638,0.029-6.27-2.127-8.399c-1.499-1.479-3.328-2.307-5.755-2.307   c-2.428,0-4.286,0.828-5.785,2.307c-2.158,2.13-2.097,4.762-2.097,8.399s-0.061,6.271,2.097,8.399   c1.499,1.479,3.357,2.307,5.785,2.307c2.427,0,4.256-0.828,5.755-2.307C219.104,618.887,219.074,616.254,219.074,612.616   L219.074,612.616z M214.908,612.616c0,4.053-0.238,5.028-1.048,5.915c-0.599,0.681-1.529,1.124-2.668,1.124   c-1.139,0-2.099-0.443-2.698-1.124c-0.809-0.887-1.02-1.862-1.02-5.915c0-4.052,0.21-5.027,1.02-5.915   c0.599-0.68,1.559-1.124,2.698-1.124c1.139,0,2.069,0.444,2.668,1.124C214.67,607.589,214.908,608.564,214.908,612.616"
       id="path17" /><polyline
       fill="#0060A0"
       points="240.768,623.145 240.768,619.479 231.087,619.479 231.087,602.088 226.92,602.088 226.92,623.145    240.768,623.145  "
       id="polyline19" /><polyline
       fill="#0060A0"
       points="259.079,605.755 259.079,602.088 243.763,602.088 243.763,605.755 249.338,605.755    249.338,623.145 253.505,623.145 253.505,605.755 259.079,605.755  "
       id="polyline21" /><polyline
       fill="#0060A0"
       points="278.796,623.145 278.796,619.479 269.654,619.479 278.796,605.341 278.796,602.088    265.158,602.088 265.158,605.755 273.881,605.755 264.77,619.833 264.77,623.145 278.796,623.145  "
       id="polyline23" /><polyline
       fill="#0060A0"
       points="96.715,638.55 96.715,743.632 98.798,743.632 98.798,638.55 96.715,638.55  "
       id="polyline25" /><path
       fill="#0060A0"
       d="M34.572,626.848c0.817-13.583,11.504-24.545,25.082-26.001c-0.436,3.887-0.691,8.181-0.694,12.909   c-0.206-0.007-0.412-0.01-0.62-0.01c-8.616,0-15.867,5.769-18.002,13.606C39.133,627.378,37.085,627.321,34.572,626.848   L34.572,626.848z M21.306,620.701c0.073-27.651,22.105-50.208,49.796-51.587c-0.856,0.921-3.902,4.513-6.729,11.693   c-22.194,1.663-39.826,19.432-40.922,41.49C22.733,621.813,22.016,621.282,21.306,620.701L21.306,620.701z M27,624.349   c0.525-20.372,16.019-37.071,36.034-39.788c-1.103,3.421-2.104,7.468-2.837,12.204c-15.813,1.03-28.465,13.474-29.578,29.059   C29.45,625.435,28.235,624.951,27,624.349"
       id="path27" /><polyline
       fill="#0060A0"
       points="113.617,658.407 113.617,655.81 122.929,641.229 114.013,641.229 114.013,638.52 126.525,638.52    126.525,640.978 117.155,655.698 126.525,655.698 126.525,658.407 113.617,658.407  "
       id="polyline29" /><polyline
       fill="#0060A0"
       points="131.591,658.407 131.591,638.52 144.471,638.52 144.471,641.229 134.648,641.229 134.648,647.039    143.027,647.039 143.027,649.721 134.648,649.721 134.648,655.698 144.471,655.698 144.471,658.407 131.591,658.407  "
       id="polyline31" /><polyline
       fill="#0060A0"
       points="162.105,658.407 152.792,644.413 152.792,658.407 149.736,658.407 149.736,638.52 152.538,638.52    161.851,652.485 161.851,638.52 164.908,638.52 164.908,658.407 162.105,658.407  "
       id="polyline33" /><polyline
       fill="#0060A0"
       points="178.07,641.229 178.07,658.407 175.013,658.407 175.013,641.229 169.465,641.229 169.465,638.52    183.618,638.52 183.618,641.229 178.07,641.229  "
       id="polyline35" /><path
       fill="#0060A0"
       d="M195.761,641.229h-4.528v6.229h4.528c2.038,0,3.425-1.146,3.425-3.101S197.798,641.229,195.761,641.229   L195.761,641.229z M199.3,658.407l-4.246-8.38h-3.821v8.38h-3.057V638.52h7.812c3.821,0,6.256,2.43,6.256,5.81   c0,2.85-1.755,4.665-4.019,5.279l4.642,8.799H199.3"
       id="path37" /><path
       fill="#0060A0"
       d="M214.698,658.575c-4.104,0-7.218-2.766-7.218-6.871V638.52h3.057v13.045c0,2.653,1.642,4.301,4.162,4.301   c2.52,0,4.188-1.647,4.188-4.301V638.52h3.058v13.185C221.944,655.81,218.803,658.575,214.698,658.575"
       id="path39" /><polyline
       fill="#0060A0"
       points="242.693,658.407 242.693,645.111 238.051,654.804 235.787,654.804 231.031,645.111    231.031,658.407 227.976,658.407 227.976,638.52 231.031,638.52 236.919,650.895 242.693,638.52 245.751,638.52 245.751,658.407    242.693,658.407  "
       id="polyline41" /><polyline
       fill="#0060A0"
       points="262.988,641.229 262.988,647.29 271.367,647.29 271.367,650 262.988,650 262.988,658.407    259.933,658.407 259.933,638.52 272.811,638.52 272.811,641.229 262.988,641.229  "
       id="polyline43" /><path
       fill="#0060A0"
       d="M286.257,636.452v-3.017h2.604v3.017H286.257L286.257,636.452z M280.142,636.452v-3.017h2.604v3.017   H280.142L280.142,636.452z M284.473,658.575c-4.104,0-7.219-2.766-7.219-6.871V638.52h3.058v13.045   c0,2.653,1.643,4.301,4.161,4.301c2.52,0,4.188-1.647,4.188-4.301V638.52h3.058v13.185   C291.719,655.81,288.578,658.575,284.473,658.575"
       id="path45" /><path
       fill="#0060A0"
       d="M305.334,641.229h-4.527v6.229h4.527c2.038,0,3.426-1.146,3.426-3.101S307.372,641.229,305.334,641.229   L305.334,641.229z M308.873,658.407l-4.246-8.38h-3.82v8.38h-3.059V638.52h7.813c3.821,0,6.257,2.43,6.257,5.81   c0,2.85-1.755,4.665-4.021,5.279l4.643,8.799H308.873"
       id="path47" /><path
       fill="#0060A0"
       d="M121.797,691.262c-4.104,0-7.218-2.765-7.218-6.871v-13.184h3.057v13.045c0,2.653,1.642,4.301,4.161,4.301   c2.52,0,4.189-1.647,4.189-4.301v-13.045h3.058v13.184C129.044,688.497,125.902,691.262,121.797,691.262"
       id="path49" /><polyline
       fill="#0060A0"
       points="149.793,691.095 149.793,677.799 145.15,687.491 142.885,687.491 138.13,677.799 138.13,691.095    135.073,691.095 135.073,671.207 138.13,671.207 144.018,683.581 149.793,671.207 152.849,671.207 152.849,691.095    149.793,691.095  "
       id="polyline51" /><polyline
       fill="#0060A0"
       points="175.607,691.095 172.947,691.095 168.842,677.156 164.766,691.095 162.105,691.095    156.841,671.207 160.067,671.207 163.577,685.425 167.625,671.207 170.087,671.207 174.136,685.425 177.645,671.207    180.873,671.207 175.607,691.095  "
       id="polyline53" /><polyline
       fill="#0060A0"
       points="184.892,691.095 184.892,671.207 197.771,671.207 197.771,673.916 187.948,673.916    187.948,679.727 196.327,679.727 196.327,682.407 187.948,682.407 187.948,688.386 197.771,688.386 197.771,691.095    184.892,691.095  "
       id="polyline55" /><polyline
       fill="#0060A0"
       points="203.037,691.095 203.037,671.207 206.093,671.207 206.093,688.386 215.803,688.386    215.803,691.095 203.037,691.095  "
       id="polyline57" /><polyline
       fill="#0060A0"
       points="224.914,673.916 224.914,691.095 221.857,691.095 221.857,673.916 216.309,673.916    216.309,671.207 230.462,671.207 230.462,673.916 224.914,673.916  "
       id="polyline59" /><polyline
       fill="#0060A0"
       points="238.077,673.916 238.077,679.978 246.456,679.978 246.456,682.687 238.077,682.687    238.077,691.095 235.021,691.095 235.021,671.207 247.899,671.207 247.899,673.916 238.077,673.916  "
       id="polyline61" /><path
       fill="#0060A0"
       d="M261.6,674.978c-0.708-0.754-1.813-1.229-3.001-1.229c-1.189,0-2.294,0.475-3.001,1.229   c-0.991,1.062-1.188,2.179-1.188,6.174c0,3.994,0.197,5.111,1.188,6.173c0.707,0.754,1.812,1.229,3.001,1.229   c1.188,0,2.293-0.475,3.001-1.229c0.99-1.062,1.188-2.179,1.188-6.173C262.788,677.156,262.59,676.039,261.6,674.978L261.6,674.978   z M263.92,689.14c-1.387,1.368-3.17,2.122-5.321,2.122s-3.906-0.754-5.294-2.122c-1.981-1.955-1.952-4.162-1.952-7.988   c0-3.827-0.029-6.034,1.952-7.989c1.388-1.369,3.143-2.123,5.294-2.123s3.935,0.754,5.321,2.123   c1.981,1.955,1.925,4.162,1.925,7.989C265.845,684.978,265.901,687.185,263.92,689.14"
       id="path63" /><path
       fill="#0060A0"
       d="M279.036,673.916h-4.529v6.229h4.529c2.037,0,3.425-1.146,3.425-3.101S281.073,673.916,279.036,673.916   L279.036,673.916z M282.574,691.095l-4.246-8.38h-3.821v8.38h-3.056v-19.888h7.811c3.822,0,6.256,2.43,6.256,5.81   c0,2.85-1.755,4.665-4.019,5.279l4.642,8.799H282.574"
       id="path65" /><path
       fill="#0060A0"
       d="M296.417,691.262c-3.029,0-5.209-0.698-7.134-2.625l2.037-1.983c1.473,1.453,3.087,1.899,5.152,1.899   c2.632,0,4.161-1.117,4.161-3.044c0-0.866-0.255-1.593-0.793-2.067c-0.509-0.475-1.019-0.671-2.208-0.838l-2.377-0.336   c-1.642-0.223-2.944-0.781-3.822-1.592c-0.99-0.922-1.472-2.179-1.472-3.799c0-3.463,2.548-5.838,6.738-5.838   c2.66,0,4.528,0.671,6.255,2.263l-1.953,1.899c-1.246-1.173-2.689-1.536-4.388-1.536c-2.378,0-3.679,1.341-3.679,3.101   c0,0.727,0.226,1.369,0.763,1.844c0.51,0.446,1.331,0.781,2.266,0.921l2.292,0.336c1.868,0.279,2.916,0.727,3.765,1.48   c1.104,0.949,1.643,2.374,1.643,4.078C303.663,689.084,300.634,691.262,296.417,691.262"
       id="path67" /><path
       fill="#0060A0"
       d="M315.353,691.262c-2.094,0-3.906-0.754-5.293-2.122c-1.981-1.955-1.953-4.162-1.953-7.988   c0-3.827-0.028-6.034,1.953-7.989c1.387-1.369,3.199-2.123,5.293-2.123c3.709,0,6.482,2.15,7.191,6.117h-3.115   c-0.481-2.011-1.839-3.407-4.076-3.407c-1.188,0-2.265,0.446-2.972,1.2c-0.991,1.062-1.218,2.207-1.218,6.202   c0,3.994,0.227,5.14,1.218,6.2c0.707,0.755,1.783,1.201,2.972,1.201c2.237,0,3.623-1.396,4.104-3.407h3.087   C321.863,689.111,319.005,691.262,315.353,691.262"
       id="path69" /><polyline
       fill="#0060A0"
       points="338.932,691.095 338.932,682.407 330.751,682.407 330.751,691.095 327.694,691.095    327.694,671.207 330.751,671.207 330.751,679.698 338.932,679.698 338.932,671.207 341.988,671.207 341.988,691.095    338.932,691.095  "
       id="polyline71" /><path
       fill="#0060A0"
       d="M355.236,691.262c-4.105,0-7.218-2.765-7.218-6.871v-13.184h3.057v13.045c0,2.653,1.642,4.301,4.161,4.301   s4.188-1.647,4.188-4.301v-13.045h3.058v13.184C362.482,688.497,359.341,691.262,355.236,691.262"
       id="path73" /><polyline
       fill="#0060A0"
       points="380.882,691.095 371.569,677.101 371.569,691.095 368.512,691.095 368.512,671.207    371.313,671.207 380.627,685.173 380.627,671.207 383.685,671.207 383.685,691.095 380.882,691.095  "
       id="polyline75" /><path
       fill="#0060A0"
       d="M402.082,689c-1.528,1.592-3.425,2.262-5.548,2.262c-2.094,0-3.906-0.754-5.292-2.122   c-1.982-1.955-1.954-4.162-1.954-7.988c0-3.827-0.028-6.034,1.954-7.989c1.386-1.369,3.141-2.123,5.292-2.123   c4.275,0,6.766,2.766,7.332,6.174h-3.085c-0.511-2.18-1.981-3.464-4.247-3.464c-1.188,0-2.264,0.475-2.972,1.229   c-0.99,1.062-1.217,2.179-1.217,6.174c0,3.994,0.227,5.14,1.217,6.2c0.708,0.755,1.783,1.201,2.972,1.201   c1.331,0,2.491-0.502,3.283-1.396c0.736-0.838,1.021-1.844,1.021-3.129v-1.117h-4.304v-2.569h7.36v3.044   C403.895,685.955,403.414,687.604,402.082,689"
       id="path77" /><path
       fill="#0060A0"
       d="M121.797,723.949c-4.104,0-7.218-2.766-7.218-6.871v-13.184h3.057v13.044c0,2.654,1.642,4.301,4.161,4.301   c2.52,0,4.189-1.646,4.189-4.301v-13.044h3.058v13.184C129.044,721.184,125.902,723.949,121.797,723.949"
       id="path79" /><polyline
       fill="#0060A0"
       points="138.13,706.603 138.13,712.664 146.509,712.664 146.509,715.374 138.13,715.374 138.13,723.781    135.073,723.781 135.073,703.895 147.953,703.895 147.953,706.603 138.13,706.603  "
       id="polyline81" /><polyline
       fill="#0060A0"
       points="151.434,723.781 151.434,721.184 160.746,706.603 151.83,706.603 151.83,703.895 164.341,703.895    164.341,706.352 154.972,721.072 164.341,721.072 164.341,723.781 151.434,723.781  "
       id="polyline83" /></g><g
     id="g85"><g
       id="g87"><path
         fill="#F68B1F"
         d="M15.384,853.653c1.319,0.778,3.383,1.455,5.514,1.455c2.639,0,4.127-1.252,4.127-3.112    c0-1.726-1.15-2.74-4.026-3.789c-3.789-1.354-6.19-3.349-6.19-6.631c0-3.755,3.112-6.563,8.085-6.563    c2.469,0,4.262,0.541,5.446,1.15l-0.981,3.349c-0.846-0.439-2.436-1.082-4.567-1.082c-2.639,0-3.755,1.387-3.755,2.74    c0,1.759,1.319,2.57,4.364,3.755c3.958,1.488,5.853,3.484,5.853,6.766c0,3.688-2.774,6.867-8.626,6.867    c-2.436,0-4.939-0.677-6.19-1.455L15.384,853.653z"
         id="path89" /><path
         fill="#555658"
         d="M44.745,857.611c-0.778,0.372-2.503,0.947-4.703,0.947c-4.939,0-8.152-3.349-8.152-8.355    c0-5.041,3.45-8.728,8.795-8.728c1.759,0,3.315,0.439,4.127,0.879l-0.677,2.267c-0.71-0.372-1.827-0.778-3.45-0.778    c-3.755,0-5.785,2.809-5.785,6.191c0,3.788,2.436,6.123,5.683,6.123c1.691,0,2.808-0.406,3.653-0.778L44.745,857.611z"
         id="path91" /><path
         fill="#555658"
         d="M51.542,837.213c0,1.015-0.71,1.826-1.895,1.826c-1.083,0-1.793-0.812-1.793-1.826s0.745-1.86,1.861-1.86    C50.798,835.353,51.542,836.164,51.542,837.213z M48.227,858.187v-16.373h2.977v16.373H48.227z"
         id="path93" /><path
         fill="#555658"
         d="M57.799,850.541c0.068,4.025,2.605,5.684,5.616,5.684c2.131,0,3.451-0.372,4.533-0.846l0.541,2.131    c-1.049,0.474-2.875,1.049-5.48,1.049c-5.041,0-8.051-3.349-8.051-8.288c0-4.938,2.909-8.795,7.679-8.795    c5.378,0,6.766,4.668,6.766,7.679c0,0.608-0.034,1.049-0.102,1.387H57.799z M66.527,848.41c0.034-1.86-0.778-4.804-4.127-4.804    c-3.045,0-4.33,2.74-4.567,4.804H66.527z"
         id="path95" /><path
         fill="#555658"
         d="M73.087,846.245c0-1.726-0.034-3.078-0.136-4.432h2.639l0.169,2.706h0.067    c0.812-1.522,2.707-3.044,5.413-3.044c2.267,0,5.785,1.353,5.785,6.968v9.743h-2.977v-9.438c0-2.639-0.981-4.837-3.789-4.837    c-1.928,0-3.451,1.387-3.992,3.044c-0.135,0.372-0.203,0.88-0.203,1.388v9.844h-2.977V846.245z"
         id="path97" /><path
         fill="#555658"
         d="M95.309,837.89v3.924h4.263v2.267h-4.263v8.829c0,2.03,0.575,3.18,2.233,3.18    c0.812,0,1.286-0.067,1.725-0.203l0.135,2.267c-0.575,0.203-1.488,0.406-2.639,0.406c-1.387,0-2.503-0.474-3.213-1.252    c-0.812-0.913-1.15-2.367-1.15-4.296v-8.931h-2.537v-2.267h2.537v-3.045L95.309,837.89z"
         id="path99" /><path
         fill="#555658"
         d="M106.233,837.213c0,1.015-0.71,1.826-1.895,1.826c-1.083,0-1.793-0.812-1.793-1.826s0.745-1.86,1.861-1.86    C105.489,835.353,106.233,836.164,106.233,837.213z M102.918,858.187v-16.373h2.977v16.373H102.918z"
         id="path101" /><path
         fill="#555658"
         d="M111.137,858.187V844.08h-2.267v-2.267h2.267V840.9c0-4.297,2.537-7.104,7.138-7.104    c1.522,0,3.315,0.474,4.161,1.083l-0.846,2.267c-0.744-0.508-1.996-0.947-3.451-0.947c-3.146,0-4.059,2.198-4.059,4.804v0.812    h9.506v16.373h-2.977V844.08h-6.529v14.106H111.137z"
         id="path103" /><path
         fill="#555658"
         d="M140.193,857.611c-0.778,0.372-2.503,0.947-4.703,0.947c-4.939,0-8.152-3.349-8.152-8.355    c0-5.041,3.45-8.728,8.795-8.728c1.759,0,3.315,0.439,4.127,0.879l-0.677,2.267c-0.71-0.372-1.827-0.778-3.45-0.778    c-3.755,0-5.785,2.809-5.785,6.191c0,3.788,2.436,6.123,5.683,6.123c1.691,0,2.808-0.406,3.653-0.778L140.193,857.611z"
         id="path105" /><path
         fill="#F68B1F"
         d="M150.709,853.653c1.319,0.778,3.383,1.455,5.514,1.455c2.639,0,4.127-1.252,4.127-3.112    c0-1.726-1.15-2.74-4.026-3.789c-3.789-1.354-6.19-3.349-6.19-6.631c0-3.755,3.112-6.563,8.085-6.563    c2.469,0,4.262,0.541,5.446,1.15l-0.981,3.349c-0.846-0.439-2.436-1.082-4.567-1.082c-2.639,0-3.755,1.387-3.755,2.74    c0,1.759,1.319,2.57,4.364,3.755c3.958,1.488,5.853,3.484,5.853,6.766c0,3.688-2.774,6.867-8.626,6.867    c-2.436,0-4.939-0.677-6.19-1.455L150.709,853.653z"
         id="path107" /><path
         fill="#555658"
         d="M183.215,849.864c0,6.056-4.229,8.694-8.153,8.694c-4.398,0-7.848-3.247-7.848-8.423    c0-5.447,3.62-8.66,8.119-8.66C180.035,841.476,183.215,844.892,183.215,849.864z M170.259,850.034    c0,3.586,2.03,6.292,4.939,6.292c2.842,0,4.973-2.673,4.973-6.36c0-2.773-1.387-6.258-4.905-6.258    C171.781,843.708,170.259,846.955,170.259,850.034z"
         id="path109" /><path
         fill="#555658"
         d="M187.271,858.187V844.08h-2.267v-2.267h2.267v-0.778c0-2.3,0.542-4.397,1.895-5.717    c1.116-1.083,2.604-1.522,3.992-1.522c1.083,0,1.962,0.237,2.537,0.474l-0.406,2.301c-0.44-0.203-1.015-0.372-1.895-0.372    c-2.537,0-3.18,2.198-3.18,4.735v0.88h3.958v2.267h-3.958v14.106H187.271z"
         id="path111" /><path
         fill="#555658"
         d="M200.8,837.89v3.924h4.263v2.267H200.8v8.829c0,2.03,0.575,3.18,2.233,3.18    c0.812,0,1.286-0.067,1.725-0.203l0.135,2.267c-0.575,0.203-1.488,0.406-2.639,0.406c-1.387,0-2.503-0.474-3.213-1.252    c-0.812-0.913-1.15-2.367-1.15-4.296v-8.931h-2.537v-2.267h2.537v-3.045L200.8,837.89z"
         id="path113" /><path
         fill="#555658"
         d="M209.898,841.813l2.199,8.322c0.439,1.826,0.879,3.518,1.184,5.209h0.101    c0.372-1.657,0.914-3.417,1.455-5.176l2.673-8.355h2.503L222.55,850c0.609,1.962,1.083,3.688,1.455,5.345h0.102    c0.271-1.657,0.71-3.383,1.251-5.311l2.335-8.221h2.942l-5.277,16.373h-2.706l-2.503-7.814c-0.575-1.827-1.049-3.45-1.455-5.379    h-0.067c-0.406,1.962-0.913,3.653-1.488,5.413l-2.639,7.78h-2.707l-4.939-16.373H209.898z"
         id="path115" /><path
         fill="#555658"
         d="M244.975,854.263c0,1.421,0.067,2.808,0.236,3.924h-2.673l-0.236-2.063H242.2    c-0.913,1.285-2.673,2.436-5.007,2.436c-3.315,0-5.007-2.334-5.007-4.702c0-3.958,3.519-6.123,9.845-6.089v-0.339    c0-1.319-0.372-3.788-3.722-3.755c-1.556,0-3.146,0.439-4.296,1.218l-0.677-1.996c1.354-0.846,3.35-1.42,5.413-1.42    c5.007,0,6.225,3.416,6.225,6.664V854.263z M242.099,849.831c-3.247-0.068-6.935,0.507-6.935,3.688    c0,1.962,1.285,2.841,2.773,2.841c2.165,0,3.553-1.353,4.026-2.739c0.101-0.339,0.135-0.677,0.135-0.947V849.831z"
         id="path117" /><path
         fill="#555658"
         d="M249.775,846.922c0-1.929-0.034-3.586-0.136-5.108h2.605l0.135,3.247h0.102    c0.744-2.198,2.571-3.585,4.567-3.585c0.304,0,0.541,0.033,0.812,0.067v2.808c-0.305-0.067-0.609-0.067-1.015-0.067    c-2.098,0-3.586,1.556-3.992,3.788c-0.067,0.406-0.102,0.914-0.102,1.388v8.728h-2.977V846.922z"
         id="path119" /><path
         fill="#555658"
         d="M262.154,850.541c0.067,4.025,2.604,5.684,5.615,5.684c2.132,0,3.451-0.372,4.533-0.846l0.542,2.131    c-1.049,0.474-2.876,1.049-5.48,1.049c-5.041,0-8.052-3.349-8.052-8.288c0-4.938,2.909-8.795,7.68-8.795    c5.379,0,6.766,4.668,6.766,7.679c0,0.608-0.034,1.049-0.102,1.387H262.154z M270.882,848.41c0.034-1.86-0.777-4.804-4.127-4.804    c-3.044,0-4.33,2.74-4.566,4.804H270.882z"
         id="path121" /><path
         fill="#F68B1F"
         d="M284.477,853.653c1.319,0.778,3.383,1.455,5.515,1.455c2.639,0,4.127-1.252,4.127-3.112    c0-1.726-1.15-2.74-4.025-3.789c-3.789-1.354-6.191-3.349-6.191-6.631c0-3.755,3.112-6.563,8.085-6.563    c2.47,0,4.263,0.541,5.447,1.15l-0.981,3.349c-0.846-0.439-2.436-1.082-4.567-1.082c-2.638,0-3.755,1.387-3.755,2.74    c0,1.759,1.319,2.57,4.364,3.755c3.958,1.488,5.853,3.484,5.853,6.766c0,3.688-2.774,6.867-8.626,6.867    c-2.437,0-4.939-0.677-6.191-1.455L284.477,853.653z"
         id="path123" /><path
         fill="#555658"
         d="M316.982,849.864c0,6.056-4.229,8.694-8.152,8.694c-4.397,0-7.849-3.247-7.849-8.423    c0-5.447,3.62-8.66,8.119-8.66C313.803,841.476,316.982,844.892,316.982,849.864z M304.026,850.034    c0,3.586,2.029,6.292,4.939,6.292c2.841,0,4.973-2.673,4.973-6.36c0-2.773-1.388-6.258-4.905-6.258    C305.549,843.708,304.026,846.955,304.026,850.034z"
         id="path125" /><path
         fill="#555658"
         d="M320.734,834.168h2.977v24.019h-2.977V834.168z"
         id="path127" /><path
         fill="#555658"
         d="M342.417,853.688c0,1.725,0.034,3.214,0.136,4.499h-2.639l-0.169-2.673h-0.068    c-0.744,1.319-2.503,3.045-5.412,3.045c-2.571,0-5.649-1.455-5.649-7.172v-9.573h2.977v9.032c0,3.112,0.981,5.243,3.653,5.243    c1.996,0,3.383-1.387,3.925-2.74c0.169-0.405,0.271-0.947,0.271-1.521v-10.014h2.977V853.688z"
         id="path129" /><path
         fill="#555658"
         d="M350.939,837.89v3.924h4.262v2.267h-4.262v8.829c0,2.03,0.575,3.18,2.232,3.18    c0.812,0,1.285-0.067,1.726-0.203l0.135,2.267c-0.575,0.203-1.488,0.406-2.639,0.406c-1.387,0-2.503-0.474-3.214-1.252    c-0.812-0.913-1.149-2.367-1.149-4.296v-8.931h-2.537v-2.267h2.537v-3.045L350.939,837.89z"
         id="path131" /><path
         fill="#555658"
         d="M361.864,837.213c0,1.015-0.711,1.826-1.895,1.826c-1.083,0-1.793-0.812-1.793-1.826s0.744-1.86,1.86-1.86    C361.119,835.353,361.864,836.164,361.864,837.213z M358.549,858.187v-16.373h2.977v16.373H358.549z"
         id="path133" /><path
         fill="#555658"
         d="M381.279,849.864c0,6.056-4.229,8.694-8.152,8.694c-4.397,0-7.849-3.247-7.849-8.423    c0-5.447,3.62-8.66,8.119-8.66C378.1,841.476,381.279,844.892,381.279,849.864z M368.323,850.034c0,3.586,2.029,6.292,4.939,6.292    c2.841,0,4.973-2.673,4.973-6.36c0-2.773-1.388-6.258-4.905-6.258C369.846,843.708,368.323,846.955,368.323,850.034z"
         id="path135" /><path
         fill="#555658"
         d="M385.031,846.245c0-1.726-0.034-3.078-0.136-4.432h2.639l0.169,2.706h0.068    c0.812-1.522,2.706-3.044,5.412-3.044c2.267,0,5.785,1.353,5.785,6.968v9.743h-2.978v-9.438c0-2.639-0.98-4.837-3.788-4.837    c-1.929,0-3.451,1.387-3.992,3.044c-0.136,0.372-0.203,0.88-0.203,1.388v9.844h-2.977V846.245z"
         id="path137" /><path
         fill="#555658"
         d="M403.396,855.176c0.913,0.541,2.47,1.15,3.958,1.15c2.131,0,3.146-1.049,3.146-2.436    c0-1.421-0.846-2.165-3.011-2.978c-2.978-1.082-4.364-2.672-4.364-4.634c0-2.639,2.165-4.804,5.649-4.804    c1.657,0,3.112,0.439,3.992,1.015l-0.711,2.165c-0.643-0.406-1.827-0.981-3.349-0.981c-1.76,0-2.707,1.015-2.707,2.232    c0,1.354,0.947,1.963,3.079,2.809c2.808,1.048,4.296,2.469,4.296,4.905c0,2.909-2.267,4.938-6.089,4.938    c-1.793,0-3.451-0.474-4.601-1.15L403.396,855.176z"
         id="path139" /></g></g><g
     id="g141"><path
       fill="#555658"
       d="M205.758,886.199l1.983,8.765c0.476,2.063,0.912,4.164,1.269,6.266h0.079   c0.396-2.102,1.031-4.243,1.547-6.226l2.538-8.805h3.966l2.419,8.566c0.595,2.261,1.11,4.362,1.547,6.464h0.079   c0.277-2.102,0.753-4.203,1.269-6.464l2.142-8.566h4.799l-6.067,19.313h-4.521l-2.3-7.853c-0.595-2.022-1.031-3.847-1.468-6.187   h-0.079c-0.437,2.38-0.912,4.283-1.467,6.187l-2.458,7.853h-4.561l-5.711-19.313H205.758z"
       id="path143" /><path
       fill="#555658"
       d="M236.097,886.199l1.983,8.765c0.476,2.063,0.912,4.164,1.269,6.266h0.079   c0.397-2.102,1.031-4.243,1.547-6.226l2.538-8.805h3.966l2.419,8.566c0.596,2.261,1.11,4.362,1.547,6.464h0.079   c0.278-2.102,0.754-4.203,1.27-6.464l2.142-8.566h4.798l-6.067,19.313h-4.521l-2.301-7.853c-0.595-2.022-1.03-3.847-1.467-6.187   h-0.079c-0.437,2.38-0.912,4.283-1.468,6.187l-2.459,7.853h-4.561l-5.71-19.313H236.097z"
       id="path145" /><path
       fill="#555658"
       d="M266.437,886.199l1.983,8.765c0.476,2.063,0.912,4.164,1.269,6.266h0.079   c0.397-2.102,1.031-4.243,1.547-6.226l2.538-8.805h3.966l2.419,8.566c0.596,2.261,1.11,4.362,1.547,6.464h0.079   c0.278-2.102,0.754-4.203,1.27-6.464l2.142-8.566h4.798l-6.067,19.313h-4.521l-2.301-7.853c-0.595-2.022-1.03-3.847-1.467-6.187   h-0.079c-0.437,2.38-0.912,4.283-1.468,6.187l-2.459,7.853h-4.561l-5.71-19.313H266.437z"
       id="path147" /><path
       fill="#555658"
       d="M290.867,902.816c0-1.824,1.27-3.134,3.014-3.134c1.785,0,3.015,1.27,3.015,3.134   c0,1.784-1.19,3.133-3.054,3.133C292.097,905.949,290.867,904.601,290.867,902.816z"
       id="path149" /><path
       fill="#3C3C3D"
       d="M306.413,881.242v4.957h4.64v3.648h-4.64v8.526c0,2.38,0.635,3.569,2.499,3.569   c0.872,0,1.348-0.039,1.903-0.198l0.079,3.688c-0.714,0.277-2.022,0.516-3.529,0.516c-1.824,0-3.292-0.595-4.204-1.587   c-1.07-1.11-1.547-2.895-1.547-5.433v-9.082h-2.736v-3.648h2.736v-3.608L306.413,881.242z"
       id="path151" /><path
       fill="#3C3C3D"
       d="M319.62,894.687h0.079c0.477-0.754,1.031-1.587,1.508-2.261l4.719-6.227h5.869l-7.178,7.893l8.169,11.421   h-5.988l-5.552-8.526l-1.626,1.943v6.583h-4.878v-28.157h4.878V894.687z"
       id="path153" /><path
       fill="#F68B1F"
       d="M334.73,900.992c1.071,0.674,3.173,1.427,4.918,1.427c2.142,0,3.093-0.912,3.093-2.181   c0-1.309-0.793-1.943-3.172-2.815c-3.768-1.27-5.314-3.331-5.314-5.632c0-3.41,2.815-6.027,7.297-6.027   c2.142,0,4.006,0.515,5.155,1.149l-0.991,3.411c-0.793-0.477-2.38-1.11-4.085-1.11c-1.745,0-2.696,0.872-2.696,2.062   c0,1.229,0.912,1.785,3.371,2.697c3.529,1.229,5.115,3.014,5.155,5.869c0,3.529-2.736,6.067-7.853,6.067   c-2.34,0-4.441-0.555-5.869-1.349L334.73,900.992z"
       id="path155" /><path
       fill="#F68B1F"
       d="M349.881,873.549c1.031-0.635,2.975-1.229,5.115-1.229c3.609,0,5.314,1.784,5.314,3.807   c0,1.666-1.269,2.975-3.133,3.53v0.079c2.181,0.277,3.768,1.705,3.768,3.728c0,2.657-2.538,4.68-6.742,4.68   c-2.062,0-3.966-0.476-4.997-1.11l0.833-2.578c0.714,0.437,2.34,1.031,3.768,1.031c2.022,0,3.133-1.07,3.133-2.181   c0-1.626-1.863-2.34-3.768-2.34h-1.149v-2.301h1.07c1.428,0,3.331-0.515,3.331-2.022c0-0.872-0.674-1.665-2.26-1.665   c-1.428,0-2.816,0.595-3.49,1.031L349.881,873.549z"
       id="path157" /><path
       fill="#555658"
       d="M363.88,902.816c0-1.824,1.27-3.134,3.014-3.134c1.785,0,3.015,1.27,3.015,3.134   c0,1.784-1.19,3.133-3.054,3.133C365.109,905.949,363.88,904.601,363.88,902.816z"
       id="path159" /><path
       fill="#555658"
       d="M391.641,877.355v22.725c0,1.982,0.079,4.124,0.158,5.433h-4.322l-0.238-3.054h-0.079   c-1.15,2.142-3.49,3.49-6.266,3.49c-4.641,0-8.289-3.927-8.289-9.875c-0.039-6.464,4.006-10.311,8.646-10.311   c2.657,0,4.561,1.07,5.434,2.498h0.079v-10.906H391.641z M386.763,894.25c0-0.396-0.04-0.912-0.119-1.309   c-0.437-1.864-1.982-3.411-4.204-3.411c-3.133,0-4.877,2.776-4.877,6.346s1.744,6.146,4.838,6.146c1.982,0,3.728-1.348,4.203-3.45   c0.119-0.436,0.159-0.912,0.159-1.428V894.25z"
       id="path161" /><path
       fill="#555658"
       d="M400.326,897.225c0.119,3.489,2.816,4.996,5.949,4.996c2.26,0,3.847-0.356,5.354-0.872l0.714,3.331   c-1.666,0.714-3.966,1.229-6.742,1.229c-6.266,0-9.954-3.847-9.954-9.756c0-5.354,3.252-10.39,9.438-10.39   c6.267,0,8.328,5.155,8.328,9.398c0,0.912-0.079,1.626-0.158,2.063H400.326z M408.813,893.813c0.039-1.784-0.754-4.719-4.006-4.719   c-3.014,0-4.283,2.736-4.481,4.719H408.813z"
       id="path163" /></g><g
     id="g165"><g
       id="g167"><g
         id="g169"><path
           fill="#3C3C3D"
           d="M17.289,160.542h41.549v11.609H30.393v21.38h26.421v11.494H30.393v32.989H17.289V160.542z"
           id="path171" /><path
           fill="#3C3C3D"
           d="M86.794,227.533c2.301,1.563,6.819,3.311,10.569,3.311c4.603,0,6.648-2.115,6.648-5.058     c0-3.034-1.705-4.505-6.819-6.528c-8.098-2.942-11.421-7.724-11.421-13.057c0-7.908,6.051-13.977,15.683-13.977     c4.603,0,8.609,1.195,11.081,2.667l-2.131,7.908c-1.705-1.103-5.114-2.574-8.779-2.574c-3.75,0-5.796,2.022-5.796,4.781     c0,2.85,1.96,4.138,7.245,6.252c7.586,2.851,10.995,6.988,11.081,13.608c0,8.184-5.881,14.068-16.877,14.068     c-5.029,0-9.546-1.287-12.615-3.126L86.794,227.533z"
           id="path173" /><path
           fill="#3C3C3D"
           d="M122.762,172.731h10.484v26.573h0.17c1.279-2.115,3.069-3.862,5.2-5.057     c2.131-1.287,4.603-2.023,7.245-2.023c7.074,0,14.49,5.058,14.49,19.401v26.39h-10.484v-25.194     c0-6.436-2.216-11.401-8.012-11.401c-4.091,0-6.989,2.942-8.183,6.344c-0.341,1.012-0.426,2.207-0.426,3.402v26.849h-10.484     V172.731z"
           id="path175" /></g><g
         id="g177"><path
           fill="#3C3C3D"
           d="M78.166,193.952v118.785H65.587V193.952H78.166z"
           id="path179" /><path
           fill="#3C3C3D"
           d="M93.919,281.29c0-5.149-0.17-9.471-0.341-13.333h9.12l0.511,6.712h0.256     c1.875-3.494,6.393-7.724,13.297-7.724c7.245,0,14.746,5.058,14.746,19.218v26.573h-10.484v-25.286     c0-6.437-2.216-11.31-7.927-11.31c-4.177,0-7.075,3.218-8.183,6.62c-0.341,0.919-0.512,2.299-0.512,3.586v26.39H93.919V281.29z"
           id="path181" /><path
           fill="#3C3C3D"
           d="M142.246,302.254c2.301,1.563,6.819,3.311,10.569,3.311c4.603,0,6.648-2.115,6.648-5.058     c0-3.034-1.705-4.505-6.819-6.528c-8.098-2.942-11.421-7.724-11.421-13.057c0-7.908,6.051-13.977,15.683-13.977     c4.603,0,8.609,1.195,11.081,2.667l-2.131,7.908c-1.705-1.103-5.114-2.574-8.779-2.574c-3.75,0-5.796,2.022-5.796,4.781     c0,2.85,1.96,4.138,7.245,6.252c7.586,2.851,10.995,6.988,11.081,13.608c0,8.184-5.881,14.068-16.877,14.068     c-5.029,0-9.546-1.287-12.615-3.126L142.246,302.254z"
           id="path183" /><path
           fill="#3C3C3D"
           d="M178.213,282.853c0-5.885-0.17-10.666-0.341-14.896h9.206l0.511,6.896h0.17     c3.068-5.057,7.927-7.908,14.234-7.908c9.546,0,17.474,8.827,17.474,22.804c0,16.183-9.461,23.999-18.923,23.999     c-5.199,0-9.546-2.391-11.677-5.977h-0.17v23.171h-10.484V282.853z M188.697,293.979c0,1.104,0.085,2.115,0.256,3.126     c1.108,4.598,4.773,7.908,9.291,7.908c6.648,0,10.569-5.977,10.569-14.804c0-7.907-3.58-14.344-10.313-14.344     c-4.347,0-8.353,3.402-9.461,8.367c-0.171,0.919-0.341,1.931-0.341,2.851V293.979z"
           id="path185" /><path
           fill="#3C3C3D"
           d="M235.489,293.52c0.256,8.091,6.052,11.585,12.785,11.585c4.858,0,8.269-0.828,11.507-2.023l1.534,7.724     c-3.58,1.655-8.523,2.851-14.49,2.851c-13.467,0-21.394-8.919-21.394-22.62c0-12.413,6.989-24.091,20.286-24.091     c13.467,0,17.899,11.954,17.899,21.792c0,2.115-0.171,3.77-0.341,4.782H235.489z M253.729,285.612     c0.085-4.138-1.619-10.942-8.608-10.942c-6.479,0-9.206,6.344-9.632,10.942H253.729z"
           id="path187" /><path
           fill="#3C3C3D"
           d="M302.567,311.357c-2.216,1.104-6.563,2.299-11.763,2.299c-12.955,0-21.394-9.011-21.394-22.896     c0-13.424,8.523-23.815,23.099-23.815c3.836,0,7.757,0.919,10.144,2.023l-1.876,8.551c-1.704-0.919-4.176-1.747-7.927-1.747     c-8.012,0-12.785,6.345-12.7,14.528c0,9.195,5.541,14.436,12.7,14.436c3.58,0,6.223-0.828,8.268-1.747L302.567,311.357z"
           id="path189" /><path
           fill="#3C3C3D"
           d="M323.618,256.464v11.494h9.973v8.459h-9.973v19.769c0,5.517,1.364,8.275,5.37,8.275     c1.875,0,2.898-0.092,4.091-0.46l0.171,8.551c-1.534,0.644-4.347,1.195-7.586,1.195c-3.921,0-7.074-1.379-9.035-3.678     c-2.301-2.575-3.324-6.712-3.324-12.597v-21.056h-5.881v-8.459h5.881v-8.368L323.618,256.464z"
           id="path191" /><path
           fill="#3C3C3D"
           d="M380.471,289.934c0,16.458-10.74,23.814-21.31,23.814c-11.677,0-20.797-8.643-20.797-23.079     c0-14.712,8.949-23.723,21.479-23.723C372.203,266.946,380.471,276.325,380.471,289.934z M349.189,290.393     c0,8.643,4.006,15.172,10.313,15.172c5.966,0,10.143-6.253,10.143-15.356c0-6.988-2.897-15.08-10.058-15.08     C352.172,275.129,349.189,282.945,349.189,290.393z"
           id="path193" /><path
           fill="#3C3C3D"
           d="M389.078,282.394c0-6.069-0.086-10.482-0.342-14.436h9.035l0.427,8.459h0.255     c2.046-6.253,6.904-9.471,11.422-9.471c1.023,0,1.62,0.092,2.472,0.276v10.574c-0.938-0.184-1.875-0.276-3.153-0.276     c-4.943,0-8.438,3.402-9.376,8.551c-0.171,1.012-0.256,2.207-0.256,3.402v23.263h-10.483V282.394z"
           id="path195" /></g><ellipse
         fill="#F68B1F"
         stroke="#F68B1F"
         stroke-width="1.5"
         stroke-miterlimit="10"
         cx="71.9"
         cy="178.655"
         rx="6.017"
         ry="6.49"
         id="ellipse197" /></g><line
       fill="none"
       stroke="#555658"
       stroke-width="2"
       stroke-linecap="round"
       stroke-miterlimit="10"
       x1="24.803"
       y1="139.948"
       x2="402.9"
       y2="139.948"
       id="line199" /><line
       fill="none"
       stroke="#555658"
       stroke-width="2"
       stroke-linecap="round"
       stroke-miterlimit="10"
       x1="24.803"
       y1="344.407"
       x2="402.9"
       y2="344.407"
       id="line201" /></g><line
     fill="none"
     stroke="#555658"
     stroke-width="2"
     stroke-linecap="round"
     stroke-miterlimit="10"
     x1="22.803"
     y1="789.373"
     x2="400.9"
     y2="789.373"
     id="line203" /></svg>