<?xml version="1.0" encoding="UTF-8" standalone="no"?>
<!-- Generator: Adobe Illustrator 15.0.0, SVG Export Plug-In . SVG Version: 6.00 Build 0)  -->

<svg
   xmlns:dc="http://purl.org/dc/elements/1.1/"
   xmlns:cc="http://creativecommons.org/ns#"
   xmlns:rdf="http://www.w3.org/1999/02/22-rdf-syntax-ns#"
   xmlns:svg="http://www.w3.org/2000/svg"
   xmlns="http://www.w3.org/2000/svg"
   xmlns:sodipodi="http://sodipodi.sourceforge.net/DTD/sodipodi-0.dtd"
   xmlns:inkscape="http://www.inkscape.org/namespaces/inkscape"
   version="1.1"
   id="Layer_1"
   x="0px"
   y="0px"
   width="113.39px"
   height="113.39px"
   viewBox="0 0 113.39 113.39"
   enable-background="new 0 0 113.39 113.39"
   xml:space="preserve"
   inkscape:version="0.91 r13725"
   sodipodi:docname="splash.svg"
   inkscape:export-filename="C:\Users\tobi\Documents\Freelancer\UFZ\implementation\FishInspector_resources\splash2.png"
   inkscape:export-xdpi="476.23248"
   inkscape:export-ydpi="476.23248"><metadata
     id="metadata209"><rdf:RDF><cc:Work
         rdf:about=""><dc:format>image/svg+xml</dc:format><dc:type
           rdf:resource="http://purl.org/dc/dcmitype/StillImage" /></cc:Work></rdf:RDF></metadata><defs
     id="defs207" /><sodipodi:namedview
     pagecolor="#ffffff"
     bordercolor="#666666"
     borderopacity="1"
     objecttolerance="10"
     gridtolerance="10"
     guidetolerance="10"
     inkscape:pageopacity="0"
     inkscape:pageshadow="2"
     inkscape:window-width="1920"
     inkscape:window-height="1058"
     id="namedview205"
     showgrid="false"
     inkscape:zoom="5.8868401"
     inkscape:cx="21.185795"
     inkscape:cy="43.827279"
     inkscape:window-x="-8"
     inkscape:window-y="-8"
     inkscape:window-maximized="1"
     inkscape:current-layer="Layer_1" /><rect
     fill="#E6E7E8"
     width="113.39"
     height="113.39"
     id="rect3" /><g
     id="g5"><polyline
       fill="#0060A0"
       points="61.646,10.862 61.646,7.408 60.972,7.408 60.972,8.82 59.803,8.82 59.803,7.408 59.128,7.408    59.128,10.862 59.803,10.862 59.803,9.417 60.972,9.417 60.972,10.862 61.646,10.862  "
       id="polyline7" /><polyline
       fill="#0060A0"
       points="65.309,10.862 65.309,10.261 63.707,10.261 63.707,9.421 65.07,9.421 65.07,8.82 63.707,8.82    63.707,8.01 65.309,8.01 65.309,7.408 63.033,7.408 63.033,10.862 65.309,10.862  "
       id="polyline9" /><polyline
       fill="#0060A0"
       points="68.791,10.862 68.791,10.261 67.225,10.261 67.225,7.408 66.55,7.408 66.55,10.862 68.791,10.862     "
       id="polyline11" /><polyline
       fill="#0060A0"
       points="73.051,10.862 73.051,7.408 72.386,7.408 71.488,9.276 70.586,7.408 69.922,7.408 69.922,10.862    70.596,10.862 70.596,8.849 71.261,10.159 71.717,10.159 72.376,8.849 72.376,10.862 73.051,10.862  "
       id="polyline13" /><polyline
       fill="#0060A0"
       points="76.955,10.862 76.955,7.408 76.28,7.408 76.28,8.82 75.111,8.82 75.111,7.408 74.438,7.408    74.438,10.862 75.111,10.862 75.111,9.417 76.28,9.417 76.28,10.862 76.955,10.862  "
       id="polyline15" /><path
       fill="#0060A0"
       d="M80.776,9.135c0-0.597,0.005-1.028-0.344-1.377c-0.243-0.243-0.539-0.378-0.932-0.378   c-0.394,0-0.693,0.136-0.937,0.378c-0.35,0.349-0.34,0.781-0.34,1.377s-0.01,1.028,0.34,1.378c0.243,0.242,0.543,0.378,0.937,0.378   c0.393,0,0.688-0.136,0.932-0.378C80.781,10.164,80.776,9.732,80.776,9.135L80.776,9.135z M80.103,9.135   c0,0.665-0.039,0.825-0.17,0.97c-0.097,0.112-0.247,0.185-0.432,0.185s-0.34-0.073-0.437-0.185   c-0.131-0.146-0.165-0.306-0.165-0.97s0.034-0.825,0.165-0.97c0.097-0.111,0.252-0.184,0.437-0.184s0.335,0.073,0.432,0.184   C80.063,8.311,80.103,8.471,80.103,9.135"
       id="path17" /><polyline
       fill="#0060A0"
       points="84.288,10.862 84.288,10.261 82.721,10.261 82.721,7.408 82.047,7.408 82.047,10.862    84.288,10.862  "
       id="polyline19" /><polyline
       fill="#0060A0"
       points="87.252,8.01 87.252,7.408 84.772,7.408 84.772,8.01 85.675,8.01 85.675,10.862 86.35,10.862    86.35,8.01 87.252,8.01  "
       id="polyline21" /><polyline
       fill="#0060A0"
       points="90.443,10.862 90.443,10.261 88.964,10.261 90.443,7.942 90.443,7.408 88.236,7.408 88.236,8.01    89.647,8.01 88.173,10.319 88.173,10.862 90.443,10.862  "
       id="polyline23" /><polyline
       fill="#0060A0"
       points="60.972,13.389 60.972,30.625 61.309,30.625 61.309,13.389 60.972,13.389  "
       id="polyline25" /><path
       fill="#0060A0"
       d="M50.914,11.47c0.132-2.228,1.862-4.026,4.06-4.265c-0.071,0.638-0.112,1.342-0.112,2.118   C54.828,9.321,54.794,9.32,54.76,9.32c-1.395,0-2.568,0.946-2.914,2.232C51.652,11.557,51.32,11.547,50.914,11.47L50.914,11.47z    M48.766,10.461c0.012-4.536,3.578-8.235,8.06-8.461c-0.139,0.151-0.632,0.74-1.089,1.918c-3.592,0.272-6.446,3.187-6.624,6.805   C48.997,10.644,48.881,10.557,48.766,10.461L48.766,10.461z M49.688,11.06c0.085-3.341,2.593-6.081,5.832-6.526   c-0.178,0.562-0.34,1.225-0.459,2.002c-2.56,0.169-4.607,2.21-4.788,4.767C50.084,11.238,49.888,11.158,49.688,11.06"
       id="path27" /><polyline
       fill="#0060A0"
       points="63.707,16.646 63.707,16.22 65.215,13.829 63.771,13.829 63.771,13.384 65.797,13.384    65.797,13.787 64.28,16.202 65.797,16.202 65.797,16.646 63.707,16.646  "
       id="polyline29" /><polyline
       fill="#0060A0"
       points="66.617,16.646 66.617,13.384 68.701,13.384 68.701,13.829 67.111,13.829 67.111,14.781    68.468,14.781 68.468,15.221 67.111,15.221 67.111,16.202 68.701,16.202 68.701,16.646 66.617,16.646  "
       id="polyline31" /><polyline
       fill="#0060A0"
       points="71.556,16.646 70.049,14.351 70.049,16.646 69.554,16.646 69.554,13.384 70.007,13.384    71.515,15.675 71.515,13.384 72.01,13.384 72.01,16.646 71.556,16.646  "
       id="polyline33" /><polyline
       fill="#0060A0"
       points="74.14,13.829 74.14,16.646 73.645,16.646 73.645,13.829 72.747,13.829 72.747,13.384    75.038,13.384 75.038,13.829 74.14,13.829  "
       id="polyline35" /><path
       fill="#0060A0"
       d="M77.003,13.829h-0.732v1.021h0.732c0.33,0,0.555-0.188,0.555-0.509   C77.558,14.021,77.333,13.829,77.003,13.829L77.003,13.829z M77.576,16.646l-0.688-1.375h-0.618v1.375h-0.495v-3.262h1.265   c0.618,0,1.013,0.399,1.013,0.953c0,0.467-0.284,0.765-0.65,0.866l0.751,1.443H77.576"
       id="path37" /><path
       fill="#0060A0"
       d="M80.068,16.673c-0.664,0-1.168-0.453-1.168-1.127v-2.163h0.494v2.14c0,0.436,0.266,0.706,0.674,0.706   s0.678-0.27,0.678-0.706v-2.14h0.495v2.163C81.241,16.22,80.732,16.673,80.068,16.673"
       id="path39" /><polyline
       fill="#0060A0"
       points="84.6,16.646 84.6,14.465 83.849,16.055 83.481,16.055 82.712,14.465 82.712,16.646 82.218,16.646    82.218,13.384 82.712,13.384 83.665,15.414 84.6,13.384 85.095,13.384 85.095,16.646 84.6,16.646  "
       id="polyline41" /><polyline
       fill="#0060A0"
       points="87.885,13.829 87.885,14.823 89.241,14.823 89.241,15.267 87.885,15.267 87.885,16.646    87.39,16.646 87.39,13.384 89.475,13.384 89.475,13.829 87.885,13.829  "
       id="polyline43" /><path
       fill="#0060A0"
       d="M91.65,13.045V12.55h0.422v0.495H91.65L91.65,13.045z M90.661,13.045V12.55h0.422v0.495H90.661   L90.661,13.045z M91.362,16.673c-0.665,0-1.169-0.453-1.169-1.127v-2.163h0.495v2.14c0,0.436,0.266,0.706,0.674,0.706   c0.407,0,0.678-0.27,0.678-0.706v-2.14h0.495v2.163C92.535,16.22,92.026,16.673,91.362,16.673"
       id="path45" /><path
       fill="#0060A0"
       d="M94.738,13.829h-0.732v1.021h0.732c0.33,0,0.555-0.188,0.555-0.509   C95.293,14.021,95.068,13.829,94.738,13.829L94.738,13.829z M95.312,16.646l-0.688-1.375h-0.618v1.375h-0.495v-3.262h1.265   c0.618,0,1.013,0.399,1.013,0.953c0,0.467-0.284,0.765-0.65,0.866l0.751,1.443H95.312"
       id="path47" /><path
       fill="#0060A0"
       d="M65.031,22.035c-0.664,0-1.168-0.454-1.168-1.127v-2.163h0.495v2.14c0,0.435,0.266,0.706,0.673,0.706   c0.408,0,0.679-0.271,0.679-0.706v-2.14h0.494v2.163C66.204,21.582,65.696,22.035,65.031,22.035"
       id="path49" /><polyline
       fill="#0060A0"
       points="69.563,22.008 69.563,19.827 68.812,21.417 68.445,21.417 67.675,19.827 67.675,22.008    67.181,22.008 67.181,18.746 67.675,18.746 68.628,20.775 69.563,18.746 70.058,18.746 70.058,22.008 69.563,22.008  "
       id="polyline51" /><polyline
       fill="#0060A0"
       points="73.741,22.008 73.311,22.008 72.646,19.722 71.986,22.008 71.556,22.008 70.704,18.746    71.226,18.746 71.794,21.078 72.449,18.746 72.848,18.746 73.503,21.078 74.071,18.746 74.594,18.746 73.741,22.008  "
       id="polyline53" /><polyline
       fill="#0060A0"
       points="75.244,22.008 75.244,18.746 77.328,18.746 77.328,19.19 75.738,19.19 75.738,20.143    77.095,20.143 77.095,20.583 75.738,20.583 75.738,21.563 77.328,21.563 77.328,22.008 75.244,22.008  "
       id="polyline55" /><polyline
       fill="#0060A0"
       points="78.181,22.008 78.181,18.746 78.676,18.746 78.676,21.563 80.247,21.563 80.247,22.008    78.181,22.008  "
       id="polyline57" /><polyline
       fill="#0060A0"
       points="81.722,19.19 81.722,22.008 81.228,22.008 81.228,19.19 80.329,19.19 80.329,18.746 82.62,18.746    82.62,19.19 81.722,19.19  "
       id="polyline59" /><polyline
       fill="#0060A0"
       points="83.853,19.19 83.853,20.184 85.209,20.184 85.209,20.628 83.853,20.628 83.853,22.008    83.357,22.008 83.357,18.746 85.442,18.746 85.442,19.19 83.853,19.19  "
       id="polyline61" /><path
       fill="#0060A0"
       d="M87.66,19.364c-0.115-0.124-0.294-0.202-0.486-0.202s-0.371,0.078-0.485,0.202   c-0.16,0.174-0.192,0.357-0.192,1.012c0,0.655,0.032,0.838,0.192,1.013c0.114,0.124,0.293,0.202,0.485,0.202   s0.371-0.078,0.486-0.202c0.16-0.174,0.192-0.357,0.192-1.013C87.853,19.722,87.82,19.538,87.66,19.364L87.66,19.364z    M88.035,21.687c-0.225,0.225-0.513,0.348-0.861,0.348c-0.348,0-0.632-0.124-0.856-0.348c-0.321-0.321-0.316-0.683-0.316-1.311   c0-0.627-0.005-0.989,0.316-1.31c0.225-0.225,0.509-0.349,0.856-0.349c0.349,0,0.637,0.124,0.861,0.349   c0.321,0.321,0.312,0.683,0.312,1.31C88.347,21.004,88.356,21.366,88.035,21.687"
       id="path63" /><path
       fill="#0060A0"
       d="M90.482,19.19h-0.733v1.022h0.733c0.329,0,0.554-0.188,0.554-0.509S90.812,19.19,90.482,19.19L90.482,19.19   z M91.055,22.008l-0.688-1.375h-0.618v1.375h-0.495v-3.262h1.265c0.619,0,1.013,0.398,1.013,0.953c0,0.467-0.284,0.765-0.65,0.866   l0.751,1.443H91.055"
       id="path65" /><path
       fill="#0060A0"
       d="M93.295,22.035c-0.49,0-0.843-0.115-1.154-0.431l0.33-0.325c0.238,0.238,0.499,0.312,0.834,0.312   c0.426,0,0.673-0.184,0.673-0.5c0-0.142-0.041-0.261-0.128-0.339c-0.082-0.078-0.165-0.11-0.357-0.138l-0.385-0.055   c-0.266-0.037-0.477-0.128-0.618-0.261c-0.161-0.151-0.238-0.357-0.238-0.623c0-0.568,0.412-0.958,1.09-0.958   c0.431,0,0.733,0.11,1.013,0.372l-0.316,0.312c-0.201-0.192-0.435-0.252-0.71-0.252c-0.385,0-0.596,0.22-0.596,0.508   c0,0.119,0.037,0.225,0.124,0.302c0.082,0.073,0.215,0.128,0.366,0.151l0.371,0.055c0.303,0.046,0.472,0.119,0.609,0.243   c0.179,0.156,0.266,0.39,0.266,0.669C94.468,21.678,93.978,22.035,93.295,22.035"
       id="path67" /><path
       fill="#0060A0"
       d="M96.36,22.035c-0.339,0-0.632-0.124-0.856-0.348c-0.321-0.321-0.316-0.683-0.316-1.311   c0-0.627-0.005-0.989,0.316-1.31c0.225-0.225,0.518-0.349,0.856-0.349c0.601,0,1.049,0.353,1.164,1.004H97.02   c-0.077-0.33-0.297-0.559-0.659-0.559c-0.192,0-0.366,0.073-0.481,0.197c-0.16,0.174-0.196,0.362-0.196,1.017   c0,0.655,0.036,0.843,0.196,1.017c0.115,0.124,0.289,0.197,0.481,0.197c0.362,0,0.586-0.229,0.664-0.559h0.5   C97.414,21.682,96.951,22.035,96.36,22.035"
       id="path69" /><polyline
       fill="#0060A0"
       points="100.177,22.008 100.177,20.583 98.853,20.583 98.853,22.008 98.357,22.008 98.357,18.746    98.853,18.746 98.853,20.138 100.177,20.138 100.177,18.746 100.672,18.746 100.672,22.008 100.177,22.008  "
       id="polyline71" /><path
       fill="#0060A0"
       d="M102.815,22.035c-0.664,0-1.168-0.454-1.168-1.127v-2.163h0.495v2.14c0,0.435,0.266,0.706,0.673,0.706   c0.408,0,0.679-0.271,0.679-0.706v-2.14h0.494v2.163C103.988,21.582,103.48,22.035,102.815,22.035"
       id="path73" /><polyline
       fill="#0060A0"
       points="106.967,22.008 105.459,19.712 105.459,22.008 104.965,22.008 104.965,18.746 105.418,18.746    106.926,21.036 106.926,18.746 107.421,18.746 107.421,22.008 106.967,22.008  "
       id="polyline75" /><path
       fill="#0060A0"
       d="M110.398,21.664c-0.248,0.261-0.555,0.371-0.898,0.371c-0.339,0-0.632-0.124-0.856-0.348   c-0.32-0.321-0.316-0.683-0.316-1.311c0-0.627-0.004-0.989,0.316-1.31c0.225-0.225,0.509-0.349,0.856-0.349   c0.692,0,1.096,0.454,1.187,1.013h-0.499c-0.082-0.357-0.32-0.568-0.688-0.568c-0.192,0-0.366,0.078-0.48,0.202   c-0.16,0.174-0.197,0.357-0.197,1.012c0,0.655,0.037,0.843,0.197,1.017c0.114,0.124,0.288,0.197,0.48,0.197   c0.216,0,0.403-0.083,0.531-0.229c0.119-0.138,0.165-0.303,0.165-0.513v-0.184H109.5v-0.421h1.191v0.5   C110.691,21.165,110.613,21.435,110.398,21.664"
       id="path77" /><path
       fill="#0060A0"
       d="M65.031,27.396c-0.664,0-1.168-0.454-1.168-1.127v-2.163h0.495v2.14c0,0.436,0.266,0.706,0.673,0.706   c0.408,0,0.679-0.27,0.679-0.706v-2.14h0.494v2.163C66.204,26.943,65.696,27.396,65.031,27.396"
       id="path79" /><polyline
       fill="#0060A0"
       points="67.675,24.551 67.675,25.545 69.031,25.545 69.031,25.99 67.675,25.99 67.675,27.369    67.181,27.369 67.181,24.107 69.265,24.107 69.265,24.551 67.675,24.551  "
       id="polyline81" /><polyline
       fill="#0060A0"
       points="69.828,27.369 69.828,26.943 71.336,24.551 69.893,24.551 69.893,24.107 71.918,24.107    71.918,24.51 70.401,26.925 71.918,26.925 71.918,27.369 69.828,27.369  "
       id="polyline83" /></g><g
     id="g85"><g
       id="g87"><g
         id="g89"><path
           fill="#F68B1F"
           d="M45.754,101.487c0.215,0.126,0.55,0.236,0.896,0.236c0.429,0,0.67-0.203,0.67-0.505     c0-0.28-0.187-0.445-0.653-0.615c-0.615-0.221-1.006-0.544-1.006-1.077c0-0.609,0.506-1.065,1.313-1.065     c0.401,0,0.692,0.088,0.884,0.187l-0.159,0.544c-0.137-0.071-0.396-0.176-0.741-0.176c-0.429,0-0.609,0.225-0.609,0.445     c0,0.285,0.214,0.417,0.708,0.609c0.643,0.242,0.95,0.566,0.95,1.099c0,0.599-0.45,1.115-1.4,1.115     c-0.396,0-0.802-0.11-1.005-0.236L45.754,101.487z"
           id="path91" /><path
           fill="#555658"
           d="M50.525,102.131c-0.126,0.06-0.406,0.153-0.764,0.153c-0.802,0-1.323-0.544-1.323-1.356     c0-0.818,0.56-1.418,1.428-1.418c0.286,0,0.538,0.072,0.671,0.143l-0.11,0.369c-0.115-0.061-0.297-0.127-0.561-0.127     c-0.609,0-0.939,0.456-0.939,1.006c0,0.615,0.396,0.994,0.923,0.994c0.275,0,0.456-0.066,0.594-0.127L50.525,102.131z"
           id="path93" /><path
           fill="#555658"
           d="M51.633,98.818c0,0.164-0.115,0.296-0.308,0.296c-0.176,0-0.291-0.132-0.291-0.296     c0-0.165,0.12-0.303,0.302-0.303C51.512,98.516,51.633,98.647,51.633,98.818z M51.095,102.224v-2.659h0.483v2.659H51.095z"
           id="path95" /><path
           fill="#555658"
           d="M52.65,100.982c0.012,0.653,0.423,0.923,0.912,0.923c0.346,0,0.561-0.061,0.736-0.138l0.088,0.346     c-0.171,0.077-0.467,0.171-0.891,0.171c-0.818,0-1.307-0.544-1.307-1.346s0.473-1.429,1.247-1.429     c0.873,0,1.099,0.758,1.099,1.247c0,0.099-0.006,0.171-0.017,0.226H52.65z M54.068,100.637c0.005-0.303-0.127-0.781-0.671-0.781     c-0.494,0-0.703,0.445-0.741,0.781H54.068z"
           id="path97" /><path
           fill="#555658"
           d="M55.138,100.285c0-0.281-0.006-0.5-0.022-0.721h0.429l0.027,0.439h0.011     c0.132-0.246,0.439-0.494,0.879-0.494c0.368,0,0.939,0.22,0.939,1.132v1.582h-0.483v-1.532c0-0.429-0.159-0.786-0.615-0.786     c-0.313,0-0.561,0.226-0.648,0.495c-0.021,0.061-0.032,0.143-0.032,0.225v1.599h-0.483V100.285z"
           id="path99" /><path
           fill="#555658"
           d="M58.75,98.928v0.637h0.692v0.369H58.75v1.434c0,0.329,0.094,0.516,0.362,0.516     c0.132,0,0.209-0.011,0.28-0.033l0.021,0.369c-0.093,0.032-0.241,0.065-0.428,0.065c-0.226,0-0.406-0.077-0.522-0.203     c-0.132-0.148-0.187-0.385-0.187-0.698v-1.449h-0.412v-0.369h0.412V99.07L58.75,98.928z"
           id="path101" /><path
           fill="#555658"
           d="M60.526,98.818c0,0.164-0.115,0.296-0.308,0.296c-0.176,0-0.291-0.132-0.291-0.296     c0-0.165,0.121-0.303,0.302-0.303C60.405,98.516,60.526,98.647,60.526,98.818z M59.988,102.224v-2.659h0.483v2.659H59.988z"
           id="path103" /><path
           fill="#555658"
           d="M61.324,102.224v-2.29h-0.368v-0.369h0.368v-0.148c0-0.697,0.412-1.152,1.159-1.152     c0.247,0,0.538,0.076,0.676,0.176l-0.138,0.367c-0.12-0.082-0.324-0.153-0.56-0.153c-0.511,0-0.659,0.356-0.659,0.78v0.131h1.543     v2.659h-0.483v-2.29h-1.06v2.29H61.324z"
           id="path105" /><path
           fill="#555658"
           d="M66.046,102.131c-0.126,0.06-0.406,0.153-0.764,0.153c-0.802,0-1.323-0.544-1.323-1.356     c0-0.818,0.561-1.418,1.428-1.418c0.286,0,0.539,0.072,0.67,0.143l-0.109,0.369c-0.115-0.061-0.297-0.127-0.561-0.127     c-0.609,0-0.939,0.456-0.939,1.006c0,0.615,0.396,0.994,0.923,0.994c0.275,0,0.456-0.066,0.594-0.127L66.046,102.131z"
           id="path107" /><path
           fill="#F68B1F"
           d="M67.759,101.487c0.214,0.126,0.55,0.236,0.896,0.236c0.429,0,0.67-0.203,0.67-0.505     c0-0.28-0.187-0.445-0.653-0.615c-0.615-0.221-1.005-0.544-1.005-1.077c0-0.609,0.505-1.065,1.313-1.065     c0.4,0,0.692,0.088,0.885,0.187l-0.16,0.544c-0.137-0.071-0.396-0.176-0.741-0.176c-0.429,0-0.609,0.225-0.609,0.445     c0,0.285,0.214,0.417,0.708,0.609c0.643,0.242,0.95,0.566,0.95,1.099c0,0.599-0.45,1.115-1.4,1.115     c-0.396,0-0.802-0.11-1.005-0.236L67.759,101.487z"
           id="path109" /><path
           fill="#555658"
           d="M73.041,100.872c0,0.983-0.687,1.412-1.323,1.412c-0.714,0-1.274-0.527-1.274-1.368     c0-0.885,0.588-1.406,1.318-1.406C72.525,99.51,73.041,100.064,73.041,100.872z M70.938,100.9c0,0.582,0.33,1.021,0.802,1.021     c0.462,0,0.808-0.435,0.808-1.033c0-0.45-0.225-1.016-0.797-1.016C71.185,99.873,70.938,100.4,70.938,100.9z"
           id="path111" /><path
           fill="#555658"
           d="M73.704,102.224v-2.29h-0.368v-0.369h0.368v-0.126c0-0.374,0.088-0.714,0.308-0.929     c0.182-0.176,0.423-0.246,0.648-0.246c0.176,0,0.318,0.038,0.412,0.076l-0.066,0.373c-0.071-0.032-0.164-0.06-0.308-0.06     c-0.411,0-0.516,0.356-0.516,0.769v0.143h0.643v0.369h-0.643v2.29H73.704z"
           id="path113" /><path
           fill="#555658"
           d="M75.904,98.928v0.637h0.692v0.369h-0.692v1.434c0,0.329,0.094,0.516,0.362,0.516     c0.132,0,0.209-0.011,0.28-0.033l0.021,0.369c-0.093,0.032-0.241,0.065-0.428,0.065c-0.226,0-0.406-0.077-0.522-0.203     c-0.132-0.148-0.187-0.385-0.187-0.698v-1.449H75.02v-0.369h0.412V99.07L75.904,98.928z"
           id="path115" /><path
           fill="#555658"
           d="M77.383,99.564l0.357,1.352c0.071,0.297,0.143,0.571,0.192,0.846h0.017     c0.061-0.269,0.148-0.555,0.236-0.84l0.434-1.357h0.406l0.412,1.33c0.1,0.318,0.176,0.599,0.236,0.867h0.017     c0.044-0.269,0.115-0.549,0.203-0.861l0.379-1.336h0.479l-0.857,2.659h-0.439l-0.406-1.269c-0.094-0.297-0.171-0.561-0.236-0.874     h-0.011c-0.066,0.319-0.148,0.594-0.242,0.879l-0.428,1.264h-0.439l-0.803-2.659H77.383z"
           id="path117" /><path
           fill="#555658"
           d="M83.085,101.586c0,0.231,0.011,0.457,0.038,0.638h-0.434l-0.038-0.335h-0.017     c-0.148,0.209-0.434,0.396-0.813,0.396c-0.538,0-0.813-0.379-0.813-0.764c0-0.643,0.571-0.994,1.599-0.989v-0.055     c0-0.214-0.061-0.615-0.604-0.609c-0.253,0-0.511,0.071-0.697,0.197l-0.11-0.324c0.22-0.137,0.544-0.23,0.879-0.23     c0.813,0,1.011,0.555,1.011,1.082V101.586z M82.618,100.867c-0.527-0.012-1.126,0.082-1.126,0.599     c0,0.318,0.209,0.461,0.45,0.461c0.352,0,0.577-0.22,0.653-0.444c0.017-0.055,0.022-0.11,0.022-0.154V100.867z"
           id="path119" /><path
           fill="#555658"
           d="M83.869,100.395c0-0.313-0.006-0.582-0.022-0.83h0.423l0.022,0.527h0.017     c0.12-0.356,0.417-0.582,0.741-0.582c0.05,0,0.088,0.006,0.132,0.012v0.455c-0.05-0.011-0.099-0.011-0.165-0.011     c-0.341,0-0.582,0.253-0.647,0.615c-0.012,0.065-0.017,0.148-0.017,0.226v1.417h-0.483V100.395z"
           id="path121" /><path
           fill="#555658"
           d="M85.881,100.982c0.012,0.653,0.423,0.923,0.912,0.923c0.346,0,0.561-0.061,0.736-0.138l0.088,0.346     c-0.171,0.077-0.467,0.171-0.891,0.171c-0.818,0-1.307-0.544-1.307-1.346s0.473-1.429,1.247-1.429     c0.873,0,1.099,0.758,1.099,1.247c0,0.099-0.006,0.171-0.017,0.226H85.881z M87.299,100.637c0.005-0.303-0.127-0.781-0.671-0.781     c-0.494,0-0.703,0.445-0.741,0.781H87.299z"
           id="path123" /><path
           fill="#F68B1F"
           d="M89.511,101.487c0.214,0.126,0.55,0.236,0.896,0.236c0.429,0,0.67-0.203,0.67-0.505     c0-0.28-0.187-0.445-0.653-0.615c-0.615-0.221-1.005-0.544-1.005-1.077c0-0.609,0.505-1.065,1.313-1.065     c0.4,0,0.692,0.088,0.885,0.187l-0.16,0.544c-0.137-0.071-0.396-0.176-0.741-0.176c-0.429,0-0.609,0.225-0.609,0.445     c0,0.285,0.214,0.417,0.708,0.609c0.643,0.242,0.95,0.566,0.95,1.099c0,0.599-0.45,1.115-1.4,1.115     c-0.396,0-0.802-0.11-1.005-0.236L89.511,101.487z"
           id="path125" /><path
           fill="#555658"
           d="M94.793,100.872c0,0.983-0.687,1.412-1.323,1.412c-0.714,0-1.274-0.527-1.274-1.368     c0-0.885,0.588-1.406,1.318-1.406C94.277,99.51,94.793,100.064,94.793,100.872z M92.689,100.9c0,0.582,0.33,1.021,0.802,1.021     c0.462,0,0.808-0.435,0.808-1.033c0-0.45-0.225-1.016-0.797-1.016C92.937,99.873,92.689,100.4,92.689,100.9z"
           id="path127" /><path
           fill="#555658"
           d="M95.407,98.323h0.483v3.9h-0.483V98.323z"
           id="path129" /><path
           fill="#555658"
           d="M98.93,101.493c0,0.28,0.005,0.521,0.021,0.73h-0.428l-0.028-0.435h-0.011     c-0.121,0.215-0.406,0.495-0.879,0.495c-0.417,0-0.917-0.236-0.917-1.165v-1.555h0.483v1.467c0,0.506,0.159,0.852,0.593,0.852     c0.324,0,0.55-0.225,0.638-0.445c0.027-0.065,0.044-0.153,0.044-0.246v-1.627h0.483V101.493z"
           id="path131" /><path
           fill="#555658"
           d="M100.318,98.928v0.637h0.692v0.369h-0.692v1.434c0,0.329,0.094,0.516,0.362,0.516     c0.132,0,0.209-0.011,0.28-0.033l0.021,0.369c-0.093,0.032-0.241,0.065-0.428,0.065c-0.226,0-0.406-0.077-0.522-0.203     c-0.132-0.148-0.187-0.385-0.187-0.698v-1.449h-0.412v-0.369h0.412V99.07L100.318,98.928z"
           id="path133" /><path
           fill="#555658"
           d="M102.095,98.818c0,0.164-0.115,0.296-0.308,0.296c-0.176,0-0.291-0.132-0.291-0.296     c0-0.165,0.121-0.303,0.302-0.303C101.974,98.516,102.095,98.647,102.095,98.818z M101.557,102.224v-2.659h0.483v2.659H101.557z"
           id="path135" /><path
           fill="#555658"
           d="M105.249,100.872c0,0.983-0.687,1.412-1.323,1.412c-0.715,0-1.274-0.527-1.274-1.368     c0-0.885,0.588-1.406,1.318-1.406C104.733,99.51,105.249,100.064,105.249,100.872z M103.146,100.9     c0,0.582,0.329,1.021,0.802,1.021c0.462,0,0.808-0.435,0.808-1.033c0-0.45-0.226-1.016-0.796-1.016     C103.393,99.873,103.146,100.4,103.146,100.9z"
           id="path137" /><path
           fill="#555658"
           d="M105.863,100.285c0-0.281-0.006-0.5-0.022-0.721h0.429l0.027,0.439h0.011     c0.132-0.246,0.439-0.494,0.879-0.494c0.368,0,0.939,0.22,0.939,1.132v1.582h-0.483v-1.532c0-0.429-0.159-0.786-0.615-0.786     c-0.313,0-0.561,0.226-0.648,0.495c-0.021,0.061-0.032,0.143-0.032,0.225v1.599h-0.483V100.285z"
           id="path139" /><path
           fill="#555658"
           d="M108.849,101.734c0.148,0.088,0.401,0.188,0.643,0.188c0.347,0,0.511-0.171,0.511-0.396     c0-0.23-0.137-0.352-0.488-0.482c-0.483-0.176-0.709-0.435-0.709-0.753c0-0.429,0.352-0.78,0.918-0.78     c0.269,0,0.505,0.072,0.647,0.165l-0.115,0.352c-0.104-0.065-0.297-0.159-0.544-0.159c-0.285,0-0.439,0.164-0.439,0.362     c0,0.22,0.154,0.319,0.5,0.456c0.456,0.17,0.697,0.4,0.697,0.797c0,0.473-0.367,0.802-0.988,0.802     c-0.291,0-0.561-0.077-0.747-0.187L108.849,101.734z"
           id="path141" /></g></g><g
       id="g143"><path
         fill="#555658"
         d="M81.712,106.45l0.274,1.214c0.065,0.285,0.126,0.576,0.176,0.867h0.011    c0.055-0.291,0.143-0.587,0.214-0.862l0.352-1.219h0.55l0.335,1.187c0.082,0.313,0.153,0.604,0.214,0.895h0.012    c0.038-0.291,0.104-0.582,0.176-0.895l0.296-1.187h0.665l-0.841,2.675h-0.626l-0.318-1.088c-0.082-0.28-0.143-0.532-0.203-0.856    h-0.012c-0.06,0.329-0.126,0.593-0.203,0.856l-0.34,1.088h-0.632l-0.791-2.675H81.712z"
         id="path145" /><path
         fill="#555658"
         d="M85.919,106.45l0.274,1.214c0.065,0.285,0.126,0.576,0.176,0.867h0.011    c0.055-0.291,0.143-0.587,0.214-0.862l0.352-1.219h0.55l0.335,1.187c0.082,0.313,0.153,0.604,0.214,0.895h0.012    c0.038-0.291,0.104-0.582,0.176-0.895l0.296-1.187h0.665l-0.841,2.675h-0.626l-0.318-1.088c-0.082-0.28-0.143-0.532-0.203-0.856    h-0.012c-0.06,0.329-0.126,0.593-0.203,0.856l-0.34,1.088h-0.632l-0.791-2.675H85.919z"
         id="path147" /><path
         fill="#555658"
         d="M90.126,106.45l0.275,1.214c0.065,0.285,0.126,0.576,0.176,0.867h0.011    c0.055-0.291,0.143-0.587,0.214-0.862l0.352-1.219h0.55l0.335,1.187c0.082,0.313,0.154,0.604,0.214,0.895h0.012    c0.038-0.291,0.104-0.582,0.176-0.895l0.296-1.187H93.4l-0.841,2.675h-0.626l-0.318-1.088c-0.083-0.28-0.143-0.532-0.203-0.856    h-0.011c-0.061,0.329-0.127,0.593-0.204,0.856l-0.34,1.088h-0.632l-0.791-2.675H90.126z"
         id="path149" /><path
         fill="#555658"
         d="M93.515,108.752c0-0.253,0.176-0.435,0.417-0.435c0.247,0,0.418,0.176,0.418,0.435    c0,0.247-0.165,0.434-0.423,0.434C93.685,109.186,93.515,108.999,93.515,108.752z"
         id="path151" /><path
         fill="#3C3C3D"
         d="M95.669,105.764v0.687h0.643v0.505h-0.643v1.182c0,0.329,0.088,0.494,0.347,0.494    c0.12,0,0.187-0.006,0.264-0.027l0.011,0.511c-0.099,0.038-0.28,0.071-0.489,0.071c-0.252,0-0.456-0.082-0.582-0.22    c-0.148-0.154-0.214-0.401-0.214-0.753v-1.258h-0.379v-0.505h0.379v-0.5L95.669,105.764z"
         id="path153" /><path
         fill="#3C3C3D"
         d="M97.501,107.625h0.011c0.066-0.104,0.144-0.22,0.209-0.313l0.653-0.862h0.813l-0.994,1.093l1.132,1.582    h-0.83l-0.769-1.181l-0.226,0.269v0.912h-0.676v-3.9h0.676V107.625z"
         id="path155" /><path
         fill="#F68B1F"
         d="M99.598,108.499c0.148,0.093,0.439,0.197,0.682,0.197c0.296,0,0.428-0.126,0.428-0.302    c0-0.182-0.109-0.27-0.439-0.391c-0.521-0.176-0.735-0.461-0.735-0.779c0-0.473,0.39-0.835,1.011-0.835    c0.296,0,0.555,0.071,0.714,0.159l-0.138,0.473c-0.109-0.066-0.329-0.154-0.565-0.154c-0.242,0-0.374,0.121-0.374,0.286    c0,0.17,0.127,0.247,0.468,0.373c0.488,0.171,0.708,0.418,0.714,0.813c0,0.488-0.379,0.84-1.088,0.84    c-0.324,0-0.615-0.076-0.813-0.187L99.598,108.499z"
         id="path157" /><path
         fill="#F68B1F"
         d="M101.698,104.697c0.143-0.088,0.412-0.17,0.709-0.17c0.5,0,0.736,0.247,0.736,0.527    c0,0.23-0.176,0.412-0.435,0.488v0.012c0.303,0.038,0.522,0.236,0.522,0.516c0,0.368-0.352,0.648-0.935,0.648    c-0.285,0-0.549-0.065-0.691-0.153l0.115-0.357c0.099,0.061,0.324,0.143,0.521,0.143c0.28,0,0.435-0.147,0.435-0.302    c0-0.226-0.259-0.324-0.522-0.324h-0.159v-0.318h0.148c0.197,0,0.461-0.071,0.461-0.28c0-0.121-0.093-0.23-0.313-0.23    c-0.198,0-0.391,0.082-0.483,0.143L101.698,104.697z"
         id="path159" /><path
         fill="#555658"
         d="M103.641,108.752c0-0.253,0.176-0.435,0.417-0.435c0.248,0,0.418,0.176,0.418,0.435    c0,0.247-0.165,0.434-0.423,0.434C103.811,109.186,103.641,108.999,103.641,108.752z"
         id="path161" /><path
         fill="#555658"
         d="M107.487,105.225v3.147c0,0.275,0.011,0.571,0.021,0.753h-0.599l-0.032-0.423h-0.012    c-0.159,0.297-0.483,0.483-0.867,0.483c-0.644,0-1.148-0.544-1.148-1.368c-0.006-0.896,0.555-1.428,1.197-1.428    c0.368,0,0.632,0.148,0.753,0.346h0.011v-1.511H107.487z M106.812,107.564c0-0.055-0.006-0.126-0.017-0.181    c-0.061-0.259-0.274-0.473-0.582-0.473c-0.435,0-0.676,0.385-0.676,0.879s0.241,0.852,0.67,0.852c0.274,0,0.517-0.187,0.583-0.478    c0.016-0.061,0.021-0.127,0.021-0.198V107.564z"
         id="path163" /><path
         fill="#555658"
         d="M108.694,107.977c0.016,0.483,0.39,0.692,0.823,0.692c0.313,0,0.533-0.05,0.742-0.121l0.099,0.462    c-0.23,0.099-0.549,0.17-0.934,0.17c-0.868,0-1.379-0.532-1.379-1.352c0-0.741,0.45-1.438,1.308-1.438    c0.867,0,1.153,0.714,1.153,1.302c0,0.126-0.011,0.225-0.022,0.285H108.694z M109.869,107.505    c0.006-0.247-0.104-0.654-0.555-0.654c-0.417,0-0.593,0.379-0.62,0.654H109.869z"
         id="path165" /></g></g><g
     id="g167"><g
       id="g169"><g
         id="g171"><path
           fill="#3C3C3D"
           d="M4.368,41.101h11.099v2.875H7.869v5.293h7.057v2.846H7.869v8.167h-3.5V41.101z"
           id="path173" /><path
           fill="#3C3C3D"
           d="M22.935,57.687c0.615,0.387,1.821,0.819,2.823,0.819c1.229,0,1.775-0.523,1.775-1.252     c0-0.751-0.455-1.116-1.821-1.616c-2.163-0.729-3.05-1.913-3.05-3.233c0-1.958,1.616-3.46,4.189-3.46     c1.229,0,2.299,0.296,2.959,0.66l-0.569,1.958c-0.455-0.273-1.366-0.638-2.345-0.638c-1.002,0-1.548,0.501-1.548,1.184     c0,0.706,0.524,1.024,1.936,1.548c2.026,0.706,2.937,1.73,2.959,3.37c0,2.026-1.571,3.483-4.508,3.483     c-1.343,0-2.55-0.319-3.37-0.774L22.935,57.687z"
           id="path175" /><path
           fill="#3C3C3D"
           d="M32.542,44.118h2.8v6.58h0.045c0.342-0.523,0.82-0.956,1.389-1.252c0.569-0.319,1.229-0.501,1.935-0.501     c1.889,0,3.87,1.252,3.87,4.804v6.533h-2.8v-6.237c0-1.594-0.592-2.823-2.14-2.823c-1.093,0-1.867,0.729-2.186,1.571     c-0.091,0.25-0.114,0.546-0.114,0.842v6.647h-2.8V44.118z"
           id="path177" /></g><g
         id="g179"><path
           fill="#3C3C3D"
           d="M20.63,49.37v29.414h-3.36V49.37H20.63z"
           id="path181" /><path
           fill="#3C3C3D"
           d="M24.837,70.997c0-1.274-0.045-2.345-0.091-3.301h2.436l0.136,1.662h0.068     c0.501-0.865,1.708-1.913,3.552-1.913c1.935,0,3.938,1.253,3.938,4.759v6.579h-2.8v-6.261c0-1.594-0.592-2.8-2.117-2.8     c-1.116,0-1.89,0.797-2.186,1.639c-0.091,0.228-0.137,0.569-0.137,0.888v6.534h-2.8V70.997z"
           id="path183" /><path
           fill="#3C3C3D"
           d="M37.747,76.188c0.615,0.388,1.821,0.82,2.823,0.82c1.229,0,1.775-0.524,1.775-1.253     c0-0.751-0.455-1.115-1.821-1.616c-2.163-0.729-3.05-1.912-3.05-3.232c0-1.958,1.616-3.461,4.189-3.461     c1.229,0,2.299,0.296,2.959,0.66l-0.569,1.958c-0.455-0.272-1.366-0.637-2.345-0.637c-1.002,0-1.548,0.5-1.548,1.184     c0,0.706,0.524,1.024,1.936,1.548c2.026,0.706,2.937,1.73,2.959,3.369c0,2.026-1.571,3.483-4.508,3.483     c-1.343,0-2.55-0.318-3.37-0.774L37.747,76.188z"
           id="path185" /><path
           fill="#3C3C3D"
           d="M47.354,71.384c0-1.457-0.045-2.641-0.091-3.688h2.458l0.137,1.707h0.045     c0.82-1.252,2.117-1.958,3.802-1.958c2.55,0,4.667,2.186,4.667,5.646c0,4.007-2.527,5.941-5.054,5.941     c-1.389,0-2.55-0.592-3.119-1.479h-0.045v5.737h-2.8V71.384z M50.155,74.139c0,0.273,0.023,0.523,0.068,0.774     c0.296,1.138,1.275,1.958,2.481,1.958c1.776,0,2.823-1.48,2.823-3.666c0-1.957-0.957-3.551-2.755-3.551     c-1.161,0-2.231,0.842-2.527,2.071c-0.046,0.228-0.091,0.479-0.091,0.706V74.139z"
           id="path187" /><path
           fill="#3C3C3D"
           d="M62.655,74.025c0.068,2.003,1.616,2.868,3.415,2.868c1.297,0,2.208-0.205,3.073-0.501l0.409,1.912     c-0.956,0.41-2.276,0.706-3.87,0.706c-3.597,0-5.714-2.208-5.714-5.601c0-3.073,1.867-5.965,5.418-5.965     c3.598,0,4.781,2.96,4.781,5.396c0,0.524-0.046,0.934-0.091,1.185H62.655z M67.527,72.067c0.022-1.024-0.433-2.709-2.3-2.709     c-1.73,0-2.459,1.57-2.572,2.709H67.527z"
           id="path189" /><path
           fill="#3C3C3D"
           d="M80.572,78.441c-0.592,0.273-1.753,0.569-3.142,0.569c-3.46,0-5.714-2.231-5.714-5.669     c0-3.323,2.276-5.896,6.17-5.896c1.024,0,2.071,0.229,2.709,0.501l-0.501,2.117c-0.455-0.228-1.115-0.433-2.117-0.433     c-2.14,0-3.415,1.571-3.393,3.598c0,2.276,1.48,3.574,3.393,3.574c0.956,0,1.662-0.205,2.208-0.433L80.572,78.441z"
           id="path191" /><path
           fill="#3C3C3D"
           d="M86.196,64.851v2.846h2.663v2.095h-2.663v4.895c0,1.365,0.364,2.049,1.434,2.049     c0.501,0,0.774-0.022,1.093-0.114l0.046,2.117c-0.41,0.16-1.161,0.296-2.026,0.296c-1.047,0-1.89-0.341-2.413-0.91     c-0.614-0.638-0.888-1.662-0.888-3.119v-5.213H81.87v-2.095h1.571v-2.072L86.196,64.851z"
           id="path193" /><path
           fill="#3C3C3D"
           d="M101.382,73.137c0,4.075-2.868,5.896-5.691,5.896c-3.119,0-5.555-2.14-5.555-5.714     c0-3.643,2.391-5.874,5.737-5.874C99.174,67.445,101.382,69.768,101.382,73.137z M93.027,73.251c0,2.14,1.069,3.757,2.754,3.757     c1.594,0,2.71-1.549,2.71-3.803c0-1.729-0.774-3.733-2.687-3.733C93.824,69.472,93.027,71.407,93.027,73.251z"
           id="path195" /><path
           fill="#3C3C3D"
           d="M103.683,71.271c0-1.503-0.023-2.596-0.092-3.574h2.413l0.114,2.095h0.068     c0.546-1.549,1.844-2.346,3.051-2.346c0.273,0,0.433,0.023,0.66,0.068v2.618c-0.251-0.045-0.501-0.068-0.843-0.068     c-1.32,0-2.254,0.843-2.504,2.117c-0.046,0.251-0.068,0.547-0.068,0.843v5.76h-2.8V71.271z"
           id="path197" /></g><circle
         fill="#F68B1F"
         stroke="#F68B1F"
         stroke-width="1.5"
         stroke-miterlimit="10"
         cx="18.956"
         cy="45.584"
         r="1.607"
         id="circle199" /></g><line
       fill="none"
       stroke="#555658"
       stroke-width="0.25"
       stroke-linecap="round"
       stroke-miterlimit="10"
       x1="6.375"
       y1="36"
       x2="107.375"
       y2="36"
       id="line201" /><line
       fill="none"
       stroke="#555658"
       stroke-width="0.25"
       stroke-linecap="round"
       stroke-miterlimit="10"
       x1="6.375"
       y1="86.625"
       x2="107.375"
       y2="86.625"
       id="line203" /></g></svg>